<svg width="24" height="24" viewBox="0 0 24 24" fill="none" xmlns="http://www.w3.org/2000/svg">
<path d="M6.72001 1.91531C4.07457 1.91531 1.92001 4.06987 1.92001 6.71531V17.2753C1.92001 19.9208 4.07457 22.0753 6.72001 22.0753H17.28C19.9255 22.0753 22.08 19.9208 22.08 17.2753V6.71531C22.08 4.06987 19.9255 1.91531 17.28 1.91531H6.72001ZM8.64283 5.77594C8.94427 5.7889 9.2211 5.95874 9.38814 6.21938C9.57822 6.51602 9.8732 6.9764 10.2572 7.57688C10.6076 8.12456 10.632 8.83193 10.3191 9.40313L9.61595 10.4034C9.42587 10.6742 9.38796 11.0207 9.51564 11.3259C9.71436 11.8011 10.0996 12.5315 10.7841 13.2159C11.4686 13.9004 12.1989 14.2857 12.6741 14.4844C12.9794 14.6121 13.3259 14.5741 13.5966 14.3841L14.5969 13.6809C15.1681 13.368 15.8755 13.3929 16.4231 13.7428C17.0236 14.1268 17.484 14.4218 17.7806 14.6119C18.0413 14.7789 18.2111 15.0557 18.2241 15.3572C18.298 17.0679 16.9726 17.7609 16.5872 17.7609C16.3203 17.7609 13.1119 18.1256 9.49314 14.5069C5.87442 10.8882 6.23908 7.67969 6.23908 7.41281C6.23908 7.02737 6.93211 5.70202 8.64283 5.77594Z" fill="black"/>
</svg>
