<svg width="23" height="23" viewBox="0 0 23 23" fill="none" xmlns="http://www.w3.org/2000/svg">
<g clip-path="url(#clip0_4_47)">
<path fill-rule="evenodd" clip-rule="evenodd" d="M4.62794 0.00479949C1.34863 -0.136193 0.019981 2.40333 0.019981 3.14312C0.019981 3.65401 -0.678346 9.8046 6.25848 16.7414C13.1953 23.6782 19.3459 22.9799 19.8568 22.9799C20.5966 22.9799 23.1361 21.6513 22.9951 18.372C22.9702 17.7947 22.6451 17.2639 22.1458 16.9438C21.5769 16.5789 20.6944 16.0132 19.5433 15.2784C18.4933 14.6083 17.1381 14.5602 16.0417 15.1606L14.1242 16.5075C13.605 16.8725 12.9415 16.9454 12.356 16.7C11.4453 16.3184 10.0454 15.5803 8.73331 14.2683C7.42125 12.9562 6.68311 11.5562 6.30161 10.6456C6.05611 10.06 6.1291 9.39655 6.49402 8.87737L7.84091 6.95987C8.44137 5.86511 8.39493 4.50826 7.72314 3.45828C6.98666 2.30712 6.42103 1.42468 6.05777 0.85573C5.73764 0.356451 5.20684 0.0296805 4.6296 0.00645822L4.62794 0.00479949Z" fill="black"/>
</g>
<defs>
<clipPath id="clip0_4_47">
<rect width="23" height="23" fill="white"/>
</clipPath>
</defs>
</svg>
